<?xml version="1.0" encoding="UTF-8"?>
<svg id="Layer_1" data-name="Layer 1" xmlns="http://www.w3.org/2000/svg" viewBox="0 0 792 612">
  <defs>
    <style>
      .cls-1 {
        stroke-width: 5.08px;
      }

      .cls-1, .cls-2 {
        fill: none;
        stroke: #b88a63;
        stroke-miterlimit: 10;
      }

      .cls-3 {
        fill: #4a4a4a;
      }

      .cls-2 {
        stroke-width: 4.24px;
      }

      .cls-4 {
        fill: #c76f30;
      }

      .cls-5 {
        fill: #b88a63;
      }
    </style>
  </defs>
  <path class="cls-4" d="m364.81,265.02c55.41-48.25,68.72-58.01,70-57.37,2.82,1.41-58.9,49.86-96.43,121.54-18.59,35.51-25.98,66.67-29.29,88,3.1,5.67,6.19,11.34,9.29,17.02-3.33,5.83-6.67,11.67-10,17.5-5.48,9.89-10.95,19.77-16.43,29.66-5-14.26-10-28.52-15-42.78,4.08-7,8.16-14.01,12.24-21.01,19.5-118.95,79.75-179.69,133.48-213.33,30.31-18.97,80.85-43.28,79.29-44.73-1.35-1.25-39.62,15.36-75.82,35.81-32.58,18.41-48.09,31.23-52.76,35.17-8.86,7.49-22.05,18.79-33.57,35.49-2.57,3.72-2.85,4.52-17.14,32.57-16.11,31.61-16.97,32.99-19.29,38.89-9.04,23.01-7.78,32.13-11.28,32.25-6.41.21-23.44-30.24-7.86-55.42,2.8-4.53,5.48-6.66,13.43-18.15,10.32-14.92,13.99-23.16,19.43-32.41,4.2-7.14,15.55-26.07,37.15-45.7,4.07-3.7,20.76-18.57,48.43-33.71,16.71-9.14,30.9-14.82,53.01-23.66,34.05-13.62,36.08-11.92,52-20.09,26.86-13.79,41.38-29.05,44.44-27.55,1.55.76-2.11,4.69-6.58,17.34-2.39,6.76-1.61,6.39-2.93,9.04-6,12.05-21.46,18.48-20.5,19.32.97.84,14.63-7.15,17.86-5.35,3.26,1.81-4.57,13.34-15,23.08-20.28,18.95-45.87,26.96-44.44,28.78.57.72,5.24.3,23.57-4.86-16.11,9.82-27.43,18.88-35.03,25.64,0,0-3.49,3.1-24.12,23.14-.55,7.89-3,13.84-5.15,17.83-4.39,8.16-7.96,8.94-11.28,16.69-4.03,9.41-.27,11.73-5,17.02-6.6,7.37-19.79,9.39-19.29,10.21.59.96,17.54-3.95,19.14-2.11,2.14,2.47-24.9,15.12-23.43,16.69,1.48,1.57,30.28-9.55,31.28-8.43,1.35,1.5-49.09,22.42-45.57,27.39,1.69,2.38,14.74-.38,15.57,1.3,1.66,3.36-49.92,16.41-48.43,19.61.74,1.57,14.29.73,26.28-2.11,11.23-2.66,17.43-6.19,17.86-5.83.71.6-16.08,11.18-81.29,48.78l49.14-141.15Z"/>
  <path class="cls-2" d="m352.66,397.75c10.35-3.77,24.37-9.76,38.57-18.96,31.4-20.34,48.05-46.24,45-47.65-2.14-.98-12.53,9.1-21.53,20.54-25.73,32.7-7.54,84.15,42.96,104.89,17.22,7.07,34.07,9.05,43.57,9.72"/>
  <path class="cls-5" d="m284.44,487.4c-12.26.39-23.94,3.6-35.73,6.54-13.72,3.11-27.59,6.71-41.81,6.27-6.58-.39-12.13-2.98-8.57-10.49,0,0,1.05-2.8,1.05-2.8,2.73-7.47,5.11-15.09,6.67-22.86,10.74-56.13-42.75-4.14-57.59,11.36-1.62,1.77-3.49,3.49-4.66,5.52-.03.06-.03.15-.03.04,0-.06-.06-.2-.15-.27-.1-.08-.15-.07-.15-.08,0,0,.26-.03.45-.09,8.16-3.62,15.68-8.77,23.92-12.32,4.93-2.02,14.44-6.66,19.01-2.11,4,3.76,9.98,3.88,15.15,3.27,21.86-3.39,45.87-19.13,62.68-33.2,5.97-5.2,11.77-10.82,16.16-17.42.2-.31.61-.39.91-.19s.39.61.19.91c-2.25,3.39-4.91,6.45-7.7,9.35-2.8,2.9-5.77,5.61-8.81,8.23-15.36,12.84-32.59,23.86-51.54,30.53-8.69,2.76-20.96,6.04-28.34-1.13-8-5.55-32.64,12.1-41.24,15.36-.29.07-.52.18-1.02.14-.13-.02-.3-.05-.5-.21-.2-.15-.3-.41-.32-.59-.03-.36.06-.51.11-.69,1.24-2.34,3.2-4.06,4.91-5.98,5.58-5.77,11.29-11.39,17.23-16.79,44.26-40.49,53.81-17.54,36.8,30.01,0,0-1.03,2.83-1.03,2.83l-.53,1.41c-2.07,4.72,3.54,5.65,7.1,5.84,9.87.34,19.65-1.78,29.35-3.78,11.66-2.7,23.42-5.28,34.46-10.03,3.69-1.59,7.32-3.39,10.79-5.63,2.28-1.48,5.33-.82,6.8,1.46,2.13,3.1-.29,7.62-4.02,7.59h0Z"/>
  <path class="cls-1" d="m325.52,418.84c3.84-2.83,9.77-6.22,17.14-6.32,10.4-.14,17.5,6.36,22.14,9.24,18.14,11.25,48.92-1.66,95.01-5.83,53.4-4.84,64.61-5.07,130.72,1.46,19.81,1.96,52.81,3.63,56.3-4.35"/>
  <ellipse class="cls-3" cx="297.13" cy="437.88" rx="5.85" ry="4.53"/>
  <g>
    <path class="cls-3" d="m453.71,380.93h9.39l14.71,21.46h-8.48l-6.87-11.42c-1.44-2.27-2.76-4.72-4.09-7.07h-.28c-1.24,2.38-2.57,4.8-4,7.07l-6.93,11.42h-8.17l14.71-21.46Zm-6.02,12.66h21.26v2.99h-21.26v-2.99Z"/>
    <path class="cls-3" d="m480.56,400.54l3.7-2.4c3.01,1.12,5.92,1.8,9.36,1.8,3.7,0,5.44-.83,5.44-1.93,0-1.35-3.67-1.96-7.29-2.61-4.45-.79-9.52-2.01-9.52-4.7s4.75-4.82,12.34-4.82c4.72,0,8.5.91,11.26,1.93l-3.64,2.32c-2.38-.83-4.76-1.4-7.43-1.4-3.41,0-5.03.77-5.03,1.78,0,1.27,3.42,1.76,7.1,2.4,4.58.81,9.72,1.86,9.72,4.87,0,2.77-4.61,5-13.17,5-4.64,0-9.52-.94-12.84-2.24Z"/>
    <path class="cls-3" d="m513.68,386.27h6.52l.61,1.72h.22c2.86-1.17,6.49-2.11,10.21-2.11,8.47,0,13.33,3.23,13.33,8.2,0,5.51-6.93,8.7-14.47,8.7-3.01,0-5.96-.64-8.72-1.77l.25,2.68v5.08h-7.95v-22.49Zm22.72,7.85c0-3.21-2.21-5.12-7.37-5.12-2.46,0-4.78.59-7.4,1.81v7.51c2.43.98,4.83,1.34,6.79,1.34,4.53,0,7.98-1.89,7.98-5.54Z"/>
    <path class="cls-3" d="m551.69,381.31c0-1.27,2.1-2.14,4.91-2.14s4.91.87,4.91,2.14-2.1,2.14-4.91,2.14-4.91-.89-4.91-2.14Zm.91,4.96h7.95v16.11h-7.95v-16.11Z"/>
    <path class="cls-3" d="m570.68,386.27h6.52l.61,2.87h.22c2.42-2.1,6-3.27,9.63-3.27,1.72,0,2.82.1,3.84.33l-1.38,3.28c-1.19-.16-2.07-.26-3.48-.26-2.71,0-5.96.88-8.01,3.33v9.83h-7.95v-16.11Z"/>
    <path class="cls-3" d="m592.81,398.06c0-3.45,6.02-5.25,19.93-5.96-.11-1.73-1.57-3.18-6.16-3.18-3.37,0-6.54.72-9.52,1.59l-2.93-2.52c3.73-1.12,8.53-2.11,13.91-2.11,8.47,0,12.64,2.48,12.64,6.97v9.54h-6.52l-.61-1.79h-.22c-3.04,1.23-6.52,2.18-10.52,2.18-5.94,0-10.02-1.92-10.02-4.72Zm19.93.01v-3.62c-9.19.55-12.26,1.69-12.26,3.32,0,1.42,2.04,2.05,4.89,2.05s4.86-.64,7.37-1.75Z"/>
  </g>
  <g>
    <path class="cls-3" d="m549.11,427.82h3.41v10.4h-3.41v-10.4Z"/>
    <path class="cls-3" d="m557.12,430.41h2.78l.26,1.06h.09c1.29-.68,2.77-1.25,4.75-1.25,3.1,0,4.45,1.13,4.45,3.1v4.9h-3.39v-4.66c0-1.28-.68-1.77-2.25-1.77-1.27,0-2.11.34-3.3.97v5.46h-3.39v-7.81Z"/>
    <path class="cls-3" d="m572.16,437.32l1.58-1.16c1.28.54,2.53.87,3.99.87,1.58,0,2.32-.4,2.32-.93,0-.66-1.56-.95-3.11-1.27-1.9-.38-4.06-.97-4.06-2.28s2.03-2.33,5.26-2.33c2.01,0,3.62.44,4.8.94l-1.55,1.12c-1.01-.4-2.03-.68-3.17-.68-1.46,0-2.14.38-2.14.86,0,.62,1.46.85,3.03,1.16,1.96.39,4.14.9,4.14,2.36,0,1.34-1.97,2.42-5.62,2.42-1.98,0-4.06-.46-5.48-1.09Z"/>
    <path class="cls-3" d="m586.2,435.59v-3.72h-2.06v-1.37l2.24-.08.4-2.13h2.81v2.13h3.69v1.46h-3.69v3.72c0,.92.66,1.37,2.05,1.37.49,0,1.08-.09,1.51-.18l.58,1.35c-.79.14-1.79.29-2.96.29-3.33,0-4.57-1.14-4.57-2.82Z"/>
    <path class="cls-3" d="m595.93,428.01c0-.62.9-1.04,2.1-1.04s2.1.42,2.1,1.04-.89,1.04-2.1,1.04-2.1-.43-2.1-1.04Zm.39,2.4h3.39v7.81h-3.39v-7.81Z"/>
    <path class="cls-3" d="m604.54,435.59v-3.72h-2.06v-1.37l2.24-.08.4-2.13h2.81v2.13h3.69v1.46h-3.69v3.72c0,.92.66,1.37,2.05,1.37.49,0,1.08-.09,1.51-.18l.58,1.35c-.79.14-1.8.29-2.96.29-3.33,0-4.57-1.14-4.57-2.82Z"/>
    <path class="cls-3" d="m614.5,435.31v-4.9h3.39v4.66c0,1.29.68,1.77,2.25,1.77,1.27,0,2.11-.32,3.2-1.08v-5.35h3.39v7.81h-2.78l-.26-1.15h-.09c-1.27.81-2.67,1.34-4.65,1.34-3.1,0-4.45-1.13-4.45-3.1Z"/>
    <path class="cls-3" d="m631.53,435.59v-3.72h-2.06v-1.37l2.24-.08.4-2.13h2.81v2.13h3.69v1.46h-3.69v3.72c0,.92.66,1.37,2.05,1.37.49,0,1.08-.09,1.51-.18l.58,1.35c-.79.14-1.79.29-2.96.29-3.33,0-4.57-1.14-4.57-2.82Z"/>
    <path class="cls-3" d="m640.23,434.32c0-2.54,3.26-4.1,6.66-4.1,3.91,0,5.97,1.53,5.97,3.71,0,.35-.07.7-.15.89h-9.18c.28,1.39,1.93,2.17,4.26,2.17,1.24,0,2.29-.21,3.36-.57l1.15,1.14c-1.38.5-3.12.85-4.96.85-3.99,0-7.12-1.51-7.12-4.09Zm9.7-.75c0-1.2-.99-1.93-2.97-1.93-1.68,0-3.17.68-3.46,1.93h6.43Z"/>
  </g>
</svg>